<svg version="1.1" viewBox="0.0 0.0 240.0 100.0" fill="none" stroke="none" stroke-linecap="square" stroke-miterlimit="10" xmlns:xlink="http://www.w3.org/1999/xlink" xmlns="http://www.w3.org/2000/svg"><clipPath id="p.0"><path d="m0 0l240.0 0l0 100.0l-240.0 0l0 -100.0z" clip-rule="nonzero"/></clipPath><g clip-path="url(#p.0)"><path fill="#000000" fill-opacity="0.0" d="m0 0l240.0 0l0 100.0l-240.0 0z" fill-rule="evenodd"/><path fill="#000000" fill-opacity="0.0" d="m0.020997375 0l240.0 0l0 100.0l-240.0 0z" fill-rule="evenodd"/><path fill="#ffffff" d="m57.49881 28.908752q-2.3125 0.125 -3.375 0.515625q-1.046875 0.375 -1.4375 1.46875q-0.375 1.09375 -0.375 3.515625l0 31.75q0 2.421875 0.375 3.515625q0.390625 1.09375 1.4375 1.484375q1.0625 0.375 3.375 0.5l0 1.28125q-2.6875 -0.1875 -8.203125 -0.1875q-5.171875 0 -8.125 0.1875l0 -1.28125q2.3125 -0.125 3.359375 -0.5q1.0625 -0.390625 1.4375 -1.484375q0.390625 -1.09375 0.390625 -3.515625l0 -15.359375l-20.796873 0l0 15.359375q0 2.421875 0.375 3.515625q0.390625 1.09375 1.4375 1.484375q1.0625 0.375 3.375 0.5l0 1.28125q-2.953125 -0.1875 -8.140625 -0.1875q-5.5 0 -8.187501 0.1875l0 -1.28125q2.296876 -0.125 3.359376 -0.5q1.0625 -0.390625 1.4375 -1.484375q0.390625 -1.09375 0.390625 -3.515625l0 -31.75q0 -2.421875 -0.390625 -3.515625q-0.375 -1.09375 -1.4375 -1.46875q-1.0625 -0.390625 -3.359376 -0.515625l0 -1.28125q2.687501 0.1875 8.187501 0.1875q5.125 0 8.140625 -0.1875l0 1.28125q-2.3125 0.125 -3.375 0.515625q-1.046875 0.375 -1.4375 1.46875q-0.375 1.09375 -0.375 3.515625l0 15.109375l20.796873 0l0 -15.109375q0 -2.421875 -0.390625 -3.515625q-0.375 -1.09375 -1.4375 -1.46875q-1.046875 -0.390625 -3.359375 -0.515625l0 -1.28125q2.953125 0.1875 8.125 0.1875q5.515625 0 8.203125 -0.1875l0 1.28125zm31.155304 36.34375q-1.140625 3.53125 -4.3125 6.0625q-3.171875 2.515625 -7.65625 2.515625q-4.53125 0 -7.859375 -2.078125q-3.328125 -2.078125 -5.09375 -5.8125q-1.765625 -3.75 -1.765625 -8.6875q0 -5.5625 1.796875 -9.65625q1.796875 -4.09375 5.0625 -6.296875q3.265625 -2.21875 7.609375 -2.21875q5.765625 0 8.859375 3.5q3.109375 3.484375 3.109375 10.578125l-20.03125 0q-0.1875 1.796875 -0.1875 4.09375q0 4.234375 1.375 7.375q1.375 3.125 3.640625 4.828125q2.28125 1.6875 4.765625 1.6875q3.078125 0 5.4375 -1.46875q2.375 -1.46875 3.984375 -4.921875l1.265625 0.5zm-12.46875 -24.953125q-3.015625 0 -5.1875 2.953125q-2.171875 2.9375 -2.6875 8.703125l13.953125 0q0.125 -5.0 -1.453125 -8.328125q-1.5625 -3.328125 -4.625 -3.328125zm36.993317 -1.21875q2.546875 0 4.171875 1.484375q1.640625 1.46875 1.640625 3.578125q0 1.65625 -1.0 2.84375q-0.984375 1.1875 -2.640625 1.1875q-1.40625 0 -2.40625 -0.890625q-0.984375 -0.90625 -0.984375 -2.4375q0 -2.109375 2.171875 -3.453125q-0.453125 -0.640625 -1.34375 -0.640625q-2.5 0 -4.546875 1.953125q-2.046875 1.953125 -3.203125 4.765625q-1.140625 2.8125 -1.140625 5.3125l0 13.5625q0 2.953125 1.6875 4.109375q1.703125 1.140625 5.09375 1.140625l0 1.34375l-1.53125 -0.0625q-6.53125 -0.1875 -8.328125 -0.1875q-1.65625 0 -7.546875 0.25l0 -1.34375q2.6875 0 3.765625 -0.984375q1.09375 -1.0 1.09375 -3.625l0 -20.03125q0 -2.9375 -1.09375 -4.28125q-1.078125 -1.34375 -3.765625 -1.34375l0 -1.34375q2.046875 0.1875 3.96875 0.1875q4.03125 0 6.65625 -0.890625l0 8.0q1.140625 -3.203125 3.671875 -5.703125q2.53125 -2.5 5.609375 -2.5zm26.293701 0q5.4375 0 8.796875 4.484375q3.375 4.484375 3.375 12.921875q0 5.578125 -1.921875 9.484375q-1.921875 3.890625 -5.15625 5.875q-3.234375 1.984375 -7.203125 1.984375q-2.359375 0 -4.578125 -0.953125q-2.203125 -0.96875 -3.875 -2.75l-4.53125 3.84375l-1.09375 -0.453125q0.453125 -1.609375 0.453125 -3.71875l0 -39.296875q0 -2.9375 -1.09375 -4.28125q-1.09375 -1.34375 -3.78125 -1.34375l0 -1.34375q2.046875 0.1875 3.96875 0.1875q4.03125 0 6.65625 -0.890625l0 23.09375q1.40625 -3.25 4.0625 -5.046875q2.65625 -1.796875 5.921875 -1.796875zm-2.625 33.28125q4.296875 0 6.4375 -3.859375q2.140625 -3.875 2.140625 -12.015625q0 -7.796875 -1.921875 -11.640625q-1.921875 -3.84375 -5.875 -3.84375q-2.703125 0 -4.9375 2.078125q-2.234375 2.078125 -3.203125 5.859375l0 20.28125q1.484375 1.546875 3.390625 2.34375q1.921875 0.796875 3.96875 0.796875zm49.926315 -44.546875q2.875 0 4.796875 -0.1875l0 1.28125q-3.203125 0.765625 -5.046875 5.5625l-15.046875 38.78125l-0.515625 0l-0.515625 0l-15.609375 -40.25q-1.53125 -3.96875 -4.421875 -4.09375l0 -1.28125q2.5625 0.1875 6.859375 0.1875q5.5 0 8.1875 -0.1875l0 1.28125q-2.4375 0.125 -3.5 0.609375q-1.046875 0.484375 -1.046875 1.765625q0 1.078125 0.765625 3.0l11.59375 30.78125l10.421875 -27.0625q1.28125 -3.46875 1.28125 -5.25q0 -1.984375 -1.375 -2.875q-1.375 -0.90625 -4.1875 -0.96875l0 -1.28125q3.640625 0.1875 7.359375 0.1875z" fill-rule="nonzero"/><path fill="#ffffff" d="m222.03113 66.03375q0 2.9375 1.09375 4.28125q1.09375 1.34375 3.78125 1.34375l0 1.34375q-1.984375 -0.1875 -3.96875 -0.1875q-4.03125 0 -6.65625 0.890625l0 -7.546875q-1.546875 3.96875 -4.359375 5.828125q-2.8125 1.84375 -6.140625 1.84375q-4.359375 0 -6.65625 -2.421875q-1.15625 -1.28125 -1.640625 -3.265625q-0.46875 -1.984375 -0.46875 -5.125l0 -16.0625q0 -2.9375 -1.09375 -4.28125q-1.078125 -1.34375 -3.765625 -1.34375l0 -1.34375q1.984375 0.1875 3.953125 0.1875q4.046875 0 6.65625 -0.890625l0 25.140625q0 2.4375 0.28125 3.9375q0.296875 1.5 1.359375 2.46875q1.0625 0.953125 3.234375 0.953125q2.421875 0 4.40625 -1.53125q1.984375 -1.53125 3.109375 -4.1875q1.125 -2.65625 1.125 -5.859375l0 -13.25q0 -2.9375 -1.09375 -4.28125q-1.09375 -1.34375 -3.78125 -1.34375l0 -1.34375q1.984375 0.1875 3.96875 0.1875q4.03125 0 6.65625 -0.890625l0 26.75z" fill-rule="nonzero"/></g></svg>