<svg version="1.1" viewBox="0.0 0.0 400.0 100.0" fill="none" stroke="none" stroke-linecap="square" stroke-miterlimit="10" xmlns:xlink="http://www.w3.org/1999/xlink" xmlns="http://www.w3.org/2000/svg"><clipPath id="p.0"><path d="m0 0l400.0 0l0 100.0l-400.0 0l0 -100.0z" clip-rule="nonzero"/></clipPath><g clip-path="url(#p.0)"><path fill="#000000" fill-opacity="0.0" d="m0 0l400.0 0l0 100.0l-400.0 0z" fill-rule="evenodd"/><path fill="#111111" d="m20.946167 31.109657c-2.0833645 0.10886955 -4.2411346 1.1567421 -6.4733105 3.1436157c-2.2321758 1.9778023 -4.3031397 4.4455185 -6.2128897 7.4031525c-1.9014792 2.9485626 -3.4640026 6.1511497 -4.6875696 9.607769c-1.2152958 3.4566193 -1.8229436 6.7453957 -1.8229436 9.866333c0 2.894123 0.5828458 5.275654 1.7485377 7.1445885c1.1739633 1.8689346 2.6992834 2.8578339 4.57596 2.9667053c1.1656923 -0.21774292 2.4471226 -0.87096405 3.8443031 -1.9596558c1.3971806 -1.0886993 2.7819605 -2.4949417 4.1543274 -4.218712c1.3723793 -1.7328491 2.7158146 -3.728794 4.0303173 -5.9878426c1.3227749 -2.2590523 2.4925957 -4.667797 3.5094776 -7.226242l0 0c-1.9262829 5.516079 -2.889429 9.861805 -2.889429 13.037174c0 4.127983 1.3723793 6.191971 4.1171246 6.191971c0.7605896 0 1.6203861 -0.140625 2.579403 -0.42186737c0.9672775 -0.28125 1.7568092 -0.64414215 2.3685875 -1.0886993c-0.7109852 -0.44454956 -1.2194252 -1.1794205 -1.52532 -2.2046204c-0.30589485 -1.0342636 -0.4588356 -2.331627 -0.4588356 -3.8920937c0 -1.3971634 0.16534233 -3.0438194 0.49603844 -4.939972c0.3306961 -1.8961525 0.8019333 -3.9283943 1.4137115 -6.096714c0.61177635 -2.1773987 1.3475647 -4.450058 2.2073727 -6.817978c0.8597965 -2.36792 1.7981434 -4.722233 2.8150234 -7.062935c0 -0.2812462 -0.19014359 -0.58971405 -0.570446 -0.92539215c-0.3802986 -0.33568573 -0.8515358 -0.65322113 -1.4137115 -0.95261383c-0.5539131 -0.30846405 -1.1739635 -0.5579567 -1.8601456 -0.74847794c-0.6861839 -0.1995964 -1.2814312 -0.2993927 -1.7857418 -0.2993927c-0.56217384 1.2792206 -1.1615486 2.6038017 -1.7981415 3.973751c-0.6365795 1.3608742 -1.2855587 2.7126732 -1.9469528 4.055401c-0.65312195 1.3336563 -1.2979736 2.6128807 -1.9345531 3.8376656c-0.6365795 1.2247849 -1.2070236 2.340702 -1.7113342 3.3477478c-2.7447453 5.0715218 -5.0844 8.822994 -7.0189533 11.254425c-1.926281 2.4223557 -3.6252146 3.8013763 -5.0968018 4.1370544c-0.7109852 -0.28124237 -1.0664835 -0.9526062 -1.0664835 -2.0140915c0 -2.5675125 0.5580435 -5.3255463 1.6741314 -8.274113c1.1160879 -2.957634 2.5504723 -5.7292747 4.3031397 -8.314938c1.7526665 -2.5947304 3.7078915 -4.812954 5.8656616 -6.6546707c2.1577702 -1.841713 4.253536 -2.9304123 6.2872963 -3.266098c-0.049604416 -0.4989853 -0.27695084 -1.093235 -0.6820545 -1.7827415c-0.40510178 -0.6985817 -0.9011421 -1.3835526 -1.4881172 -2.0549202c-0.5869751 -0.67136383 -1.1987534 -1.2565384 -1.8353443 -1.7555275c-0.6283207 -0.50805855 -1.1987648 -0.8437424 -1.7113342 -1.0070457z" fill-rule="evenodd"/><path fill="#111111" d="m96.30776 37.54659c-0.2066803 3.846737 -1.6575928 7.4031525 -4.3527374 10.6692505c-2.6868896 3.2570267 -6.0640793 6.0014496 -10.131599 8.233284c0.61177826 -2.5675125 1.4509125 -4.9626503 2.517395 -7.1854134c1.0664825 -2.2318306 2.2445755 -4.182419 3.5342789 -5.851757c1.2979736 -1.6784096 2.6827545 -3.0166016 4.1543274 -4.014576c1.4798508 -1.0070457 2.9059677 -1.6239738 4.2783356 -1.8507881zm-1.3021011 -7.525631c-1.6782684 0 -3.3689346 0.4173355 -5.0719986 1.2520027c-1.6948013 0.8346672 -3.3441315 1.9778023 -4.9479904 3.4294014c-1.5955963 1.4515991 -3.0919876 3.152691 -4.489151 5.1032753c-1.3971863 1.9505844 -2.6166077 4.028187 -3.6582947 6.2328033c-1.0416794 2.1955452 -1.8560104 4.4818115 -2.4429855 6.858803c-0.5787201 2.36792 -0.8680725 4.695015 -0.8680725 6.9812813c0 3.3386803 0.9755478 6.1919785 2.926628 8.559898c1.9593582 2.36792 4.691704 3.7786865 8.197052 4.232315c2.4305878 -0.61693573 5.0058594 -2.0231705 7.725807 -4.218712c2.7199478 -2.2046127 5.22081 -4.980793 7.5025864 -8.328545c-0.35549164 -0.44454956 -0.78538513 -0.916317 -1.2896957 -1.4153061c-0.81020355 0.94353867 -1.7361374 1.9868736 -2.7778244 3.1300087c-1.0416794 1.1431313 -2.1619034 2.2046165 -3.3606644 3.1844444c-1.1904907 0.97075653 -2.4471207 1.7918167 -3.7698975 2.4631805c-1.3227692 0.6622925 -2.6662064 0.9934387 -4.0303116 0.9934387c-0.7109909 0 -1.297966 -0.20867157 -1.7609406 -0.6260071c-0.45470428 -0.41732788 -0.81020355 -0.95713806 -1.0664825 -1.6194382c-0.24802399 -0.67136383 -0.425766 -1.3971634 -0.5332413 -2.1773987c-0.09921265 -0.7802315 -0.14881134 -1.5332527 -0.14881134 -2.2590485c0 -0.39011383 0.012397766 -0.76662064 0.037200928 -1.1295242c0.024803162 -0.36289597 0.037200928 -0.7121849 0.037200928 -1.0478706c3.249054 -1.388092 6.09301 -2.8351555 8.531876 -4.3411903c2.4388504 -1.506031 4.509819 -3.193512 6.212883 -5.0624466c1.7030716 -1.8689384 3.0093079 -4.0417976 3.9187088 -6.518585c0.91767883 -2.4858627 1.4798584 -5.4571037 1.6865387 -8.913723c-2.03376 -2.8396912 -4.2204666 -4.4273777 -6.5601196 -4.7630577zm-33.375874 -30.020872c-2.6372795 3.5201259 -5.3406906 8.414735 -8.110237 14.683826c-2.7695503 6.2690935 -5.729252 14.11226 -8.879101 23.529507c-1.926281 5.915264 -3.4226685 11.086582 -4.489155 15.513958c-1.0664825 4.4273796 -1.5997238 7.870388 -1.5997238 10.329029c0 1.7782059 0.15293884 3.3795013 0.4588356 4.8038864c0.30589294 1.4243774 0.6861954 2.3044052 1.1408882 2.6400986c0.35549927 0.27217102 0.76060104 0.67136383 1.2152977 1.1975632c0.45470428 0.5352783 0.7357979 0.9435425 0.84326553 1.2247925c0.14881134 0.39011383 0.47536469 0.7212601 0.9796753 0.9934311c0.5125694 0.28125 1.1243477 0.4808426 1.8353462 0.5987854c-0.04960251 -0.22680664 -0.07440567 -0.4536209 -0.07440567 -0.6804352c0 -0.21774292 0 -0.8029175 0 -1.7555237c0 -3.511055 0.55804443 -7.897606 1.6741333 -13.159653c1.116085 -5.271118 2.7406158 -11.195457 4.873581 -17.773006c2.4884682 -7.639038 5.229084 -14.4116535 8.221848 -20.317844c3.0010376 -5.906192 6.485714 -11.422267 10.454029 -16.548223c-0.20668793 -0.33568144 -0.65312195 -0.7802329 -1.3393097 -1.3336561c-0.6861801 -0.562495 -1.4633179 -1.1068444 -2.3313828 -1.6330483c-0.8597946 -0.5352768 -1.7361374 -1.0251913 -2.6290092 -1.4697436c-0.8845978 -0.4445523 -1.6327858 -0.7257998 -2.2445755 -0.84374166zm17.981213 0c-2.6372833 3.5201259 -5.3406906 8.414735 -8.110237 14.683826c-2.7695541 6.2690935 -5.7292557 14.11226 -8.879105 23.529507c-1.926281 5.915264 -3.4226685 11.086582 -4.489151 15.513958c-1.0664864 4.4273796 -1.5997276 7.870388 -1.5997276 10.329029c0 1.7782059 0.15294266 3.3795013 0.4588356 4.8038864c0.30589676 1.4243774 0.6861954 2.3044052 1.140892 2.6400986c0.35549927 0.27217102 0.76060104 0.67136383 1.2152939 1.1975632c0.4547081 0.5352783 0.7358017 0.9435425 0.84326553 1.2247925c0.14881516 0.39011383 0.4753685 0.7212601 0.9796791 0.9934311c0.5125694 0.28125 1.1243477 0.4808426 1.8353462 0.5987854c-0.049606323 -0.22680664 -0.07440567 -0.4536209 -0.07440567 -0.6804352c0 -0.21774292 0 -0.8029175 0 -1.7555237c0 -3.511055 0.5580406 -7.897606 1.6741333 -13.159653c1.1160812 -5.271118 2.7406158 -11.195457 4.873581 -17.773006c2.4884644 -7.639038 5.22908 -14.4116535 8.221848 -20.317844c3.0010376 -5.906192 6.48571 -11.422267 10.454025 -16.548223c-0.20668793 -0.33568144 -0.65312195 -0.7802329 -1.3393097 -1.3336561c-0.6861801 -0.562495 -1.4633102 -1.1068444 -2.3313828 -1.6330483c-0.8597946 -0.5352768 -1.7361374 -1.0251913 -2.6290054 -1.4697436c-0.8845978 -0.4445523 -1.6327896 -0.7257998 -2.2445755 -0.84374166z" fill-rule="evenodd"/><path fill="#111111" d="m116.114296 29.599087c-1.7278748 3.3477478 -3.521881 7.0311813 -5.3820267 11.050293c-1.8518829 4.010044 -3.3606644 8.047302 -4.5263596 12.111774c-0.61177826 2.122963 -1.0830154 4.1869545 -1.4137115 6.1919785c-0.32242584 2.0050201 -0.51257324 3.678894 -0.5704422 5.0216217c0.25628662 1.5060349 0.6365814 2.8714447 1.140892 4.0962296c0.51257324 1.2247849 1.4302444 2.36792 2.7530136 3.4294052c0.5539093 -0.39012146 1.4509125 -1.6738739 2.6910095 -3.8512726c1.2483673 -2.1773987 2.8150253 -4.7131653 4.699974 -7.6072884c1.4219742 -2.1773949 2.943161 -4.391083 4.5635605 -6.64106c1.6286621 -2.2590523 3.2035828 -4.295822 4.7247696 -6.110325c1.5294571 -1.8144989 2.9514313 -3.293316 4.265938 -4.436447c1.3227692 -1.1431351 2.3644562 -1.7419167 3.1250458 -1.7963524l0 0c-1.5707855 2.4586449 -2.901825 4.7902756 -3.9931183 6.9948883c-1.0912857 2.1955452 -2.008957 4.29583 -2.7530136 6.300846c-0.73579407 2.005024 -1.3310394 3.9420013 -1.7857437 5.810932c-0.45469666 1.8689346 -0.8101883 3.665287 -1.0664825 5.389057c0.35549164 1.4515991 0.93833923 2.6673126 1.7485428 3.6471405c0.81845856 0.97075653 1.7857361 1.7056351 2.901825 2.2046204c0.81020355 -1.052414 1.7981491 -2.46772 2.963829 -4.245926c1.1739655 -1.7872849 2.430603 -3.6970482 3.7698975 -5.7292824c1.34758 -2.0413094 2.744751 -4.09169 4.1915283 -6.1511497c1.4550629 -2.0685272 2.852234 -3.9510689 4.1915436 -5.647625c1.3475647 -1.6965523 2.6042023 -3.0891838 3.7698975 -4.1778793c1.1739502 -1.0886993 2.166031 -1.6602669 2.9762268 -1.7147026l0 0c-0.504303 1.1703529 -1.1119537 2.494938 -1.822937 3.973751c-0.71099854 1.4697456 -1.3847809 3.0574265 -2.0213623 4.7630577c-0.6365814 1.6965523 -1.1822357 3.4792976 -1.6369324 5.3482323c-0.45469666 1.8689384 -0.6820526 3.75148 -0.6820526 5.647629c0 1.1703529 0.09921265 2.2590446 0.29762268 3.2660942c0.2066803 0.9979782 0.56217957 1.887085 1.0664825 2.6673126c0.51257324 0.7802353 1.16156 1.3926315 1.9469604 1.8371811c0.78538513 0.44454956 1.7857361 0.66682434 3.0010376 0.66682434c1.3227692 0 2.517395 -0.2948532 3.5838776 -0.88456726c1.0664825 -0.5806351 2.1081696 -1.315506 3.1250458 -2.2046127c0 -0.28124237 -0.024810791 -0.58517456 -0.074401855 -0.91178894c-0.049606323 -0.3356781 -0.22735596 -0.6169205 -0.5332489 -0.8437424c-0.25628662 0 -0.65312195 0.12702179 -1.1904907 0.3810501c-0.52911377 0.24495697 -1.0954285 0.36743164 -1.6989288 0.36743164c-0.56217957 0 -0.9962158 -0.18144989 -1.3021088 -0.5443497c-0.30589294 -0.36289215 -0.4588318 -1.1295242 -0.4588318 -2.2998734c0 -2.005024 0.41749573 -4.2595367 1.2524872 -6.763542c0.843277 -2.5130768 1.7981415 -5.0624504 2.8646393 -7.6481094c1.0664825 -2.5947304 2.1205597 -5.0624504 3.1622467 -7.4031525c1.0416718 -2.340702 1.7898712 -4.3502617 2.2445679 -6.0286713c-0.355484 -1.106842 -0.9796753 -1.9505844 -1.8725433 -2.5312233c-0.8845978 -0.58971405 -1.8353424 -0.8845711 -2.8522186 -0.8845711c-1.4715881 0 -3.0341187 0.5851784 -4.6875763 1.7555275c-1.6452026 1.1703529 -3.4350739 2.8442268 -5.369629 5.0216255c-1.9262848 2.1683235 -3.9848328 4.772129 -6.1756744 7.811413c-2.1825714 3.0302124 -4.518097 6.4142494 -7.0065613 10.152119c0.15707397 -1.1703529 0.6903229 -2.7444267 1.5997314 -4.722233c0.9176636 -1.9778023 1.9097443 -4.023651 2.9762268 -6.137539c1.0664825 -2.122963 2.0668335 -4.1461296 3.0010376 -6.069496c0.94247437 -1.9233665 1.5418549 -3.4430122 1.7981415 -4.5589256c-0.049606323 -0.16330719 -0.27694702 -0.399189 -0.6820526 -0.70765686c-0.40509033 -0.30846405 -0.91352844 -0.63053894 -1.5253143 -0.96621704c-0.6117859 -0.33568573 -1.2731781 -0.61239624 -1.9841614 -0.83013535c-0.7109833 -0.22681427 -1.3723755 -0.3402176 -1.9841461 -0.3402176c-1.6204071 0 -3.4474792 0.8936424 -5.4812317 2.6809196c-2.0337677 1.7782097 -4.0799255 3.9510727 -6.138489 6.518585c-2.0503006 2.5675125 -4.0551224 5.302868 -6.014473 8.20607c-1.9510956 2.8941193 -3.6376266 5.4525642 -5.059601 7.6753273c0.29762268 -2.2771988 0.93006897 -4.5317116 1.8973465 -6.763542c0.9672775 -2.2318344 2.03376 -4.4046936 3.1994553 -6.518585c1.1656876 -2.122963 2.2817764 -4.1461296 3.348259 -6.069496c1.0747528 -1.9233665 1.8642807 -3.7469368 2.3685913 -5.4707146c-1.2731628 -1.3971634 -2.480194 -2.4586449 -3.6210861 -3.1844425c-1.140892 -0.72579765 -2.4223251 -1.2565384 -3.8442993 -1.5922222z" fill-rule="evenodd"/><path fill="#111111" d="m181.48181 31.109657c-2.083374 0.10886955 -4.2411346 1.1567421 -6.4733124 3.1436157c-2.2321777 1.9778023 -4.3031464 4.4455185 -6.2128906 7.4031525c-1.9014893 2.9485626 -3.4640045 6.1511497 -4.6875763 9.607769c-1.2152863 3.4566193 -1.822937 6.7453957 -1.822937 9.866333c0 2.894123 0.58283997 5.275654 1.7485352 7.1445885c1.1739655 1.8689346 2.6992798 2.8578339 4.5759583 2.9667053c1.1656952 -0.21774292 2.4471283 -0.87096405 3.8442993 -1.9596558c1.3971863 -1.0886993 2.781952 -2.4949417 4.1543274 -4.218712c1.3723755 -1.7328491 2.7158203 -3.728794 4.030319 -5.9878426c1.3227692 -2.2590523 2.4925995 -4.667797 3.5094757 -7.226242l0 0c-1.9262848 5.516079 -2.8894196 9.861805 -2.8894196 13.037174c0 4.127983 1.3723755 6.191971 4.1171265 6.191971c0.7605896 0 1.6203918 -0.140625 2.5793915 -0.42186737c0.96728516 -0.28125 1.7568054 -0.64414215 2.3685913 -1.0886993c-0.7109833 -0.44454956 -1.2194214 -1.1794205 -1.5253143 -2.2046204c-0.30589294 -1.0342636 -0.45884705 -2.331627 -0.45884705 -3.8920937c0 -1.3971634 0.1653595 -3.0438194 0.49604797 -4.939972c0.33068848 -1.8961525 0.80192566 -3.9283943 1.4137115 -6.096714c0.6117859 -2.1773987 1.3475647 -4.450058 2.207367 -6.817978c0.85980225 -2.36792 1.7981415 -4.722233 2.815033 -7.062935c0 -0.2812462 -0.19015503 -0.58971405 -0.5704498 -0.92539215c-0.3802948 -0.33568573 -0.851532 -0.65322113 -1.4137115 -0.95261383c-0.5539093 -0.30846405 -1.1739655 -0.5579567 -1.8601532 -0.74847794c-0.68618774 -0.1995964 -1.2814331 -0.2993927 -1.7857361 -0.2993927c-0.56217957 1.2792206 -1.16156 2.6038017 -1.7981415 3.973751c-0.6365814 1.3608742 -1.2855682 2.7126732 -1.9469604 4.055401c-0.6531067 1.3336563 -1.2979584 2.6128807 -1.9345398 3.8376656c-0.6365967 1.2247849 -1.2070312 2.340702 -1.7113342 3.3477478c-2.744751 5.0715218 -5.0844116 8.822994 -7.0189667 11.254425c-1.9262848 2.4223557 -3.6252136 3.8013763 -5.0968018 4.1370544c-0.7109833 -0.28124237 -1.0664825 -0.9526062 -1.0664825 -2.0140915c0 -2.5675125 0.55804443 -5.3255463 1.6741333 -8.274113c1.1160889 -2.957634 2.550476 -5.7292747 4.3031464 -8.314938c1.7526703 -2.5947304 3.7078857 -4.812954 5.8656616 -6.6546707c2.1577606 -1.841713 4.25354 -2.9304123 6.2872925 -3.266098c-0.049606323 -0.4989853 -0.27694702 -1.093235 -0.6820526 -1.7827415c-0.4051056 -0.6985817 -0.9011383 -1.3835526 -1.4881134 -2.0549202c-0.58699036 -0.67136383 -1.198761 -1.2565384 -1.8353424 -1.7555275c-0.6283264 -0.50805855 -1.198761 -0.8437424 -1.7113342 -1.0070457z" fill-rule="evenodd"/><path fill="#111111" d="m309.6417 12.302382c-0.3059082 0.88910484 -0.6117859 1.878006 -0.9176636 2.9667053c-0.3059082 1.0886984 -0.5621948 2.136571 -0.76885986 3.1436186c-0.1984253 0.9979725 -0.36376953 1.9279003 -0.49606323 2.7897892c-0.12399292 0.861887 -0.18600464 1.5468578 -0.18600464 2.0549202c0 0.44455338 0.08679199 0.94807625 0.2604065 1.5105705c0.18188477 0.5534229 0.40100098 0.96621895 0.6572571 1.2383938c-0.14880371 0.67136383 -0.22320557 1.1748867 -0.22320557 1.5105705c0 0.44455338 0.22735596 0.9027138 0.68203735 1.3744812c0.4547119 0.47177124 0.9879761 0.76662827 1.5997314 0.88456917c0.20669556 -0.44455338 0.66552734 -1.1975689 1.3765259 -2.2590504c0.710968 -1.0614815 1.4963684 -2.1910076 2.3561707 -3.3885765c0.85980225 -1.1975689 1.7485352 -2.340702 2.6662292 -3.4294014c0.9176636 -1.0886993 1.6534424 -1.9369755 2.207367 -2.5448322c-0.40512085 -0.61693 -0.98794556 -1.2701492 -1.7485352 -1.9596596c-0.7605896 -0.6985817 -1.5997314 -1.338192 -2.517395 -1.9188309c-0.9094238 -0.5897131 -1.8105469 -1.066019 -2.7034302 -1.4289179c-0.8845825 -0.36289883 -1.632782 -0.5443497 -2.2445679 -0.5443497zm50.060364 25.244205c-0.20669556 3.846737 -1.6575928 7.4031525 -4.3527527 10.6692505c-2.6868591 3.2570267 -6.0640564 6.0014496 -10.131592 8.233284c0.6117859 -2.5675125 1.4509277 -4.9626503 2.517395 -7.1854134c1.0664978 -2.2318306 2.2445984 -4.182419 3.5343018 -5.851757c1.2979736 -1.6784096 2.6827393 -3.0166016 4.1543274 -4.014576c1.4798279 -1.0070457 2.9059448 -1.6239738 4.2783203 -1.8507881zm-56.45926 -3.0075302c-1.1739807 0.6169281 -2.1784668 1.5650024 -3.0134583 2.8442268c-0.83499146 1.2792206 -1.5459595 2.6038017 -2.132965 3.973751c-0.5869751 1.3608704 -1.058197 2.6582375 -1.4136963 3.8920975c-0.35549927 1.2247849 -0.5828552 2.1138916 -0.6820679 2.6673126c-0.504303 2.5040054 -0.92181396 4.6496468 -1.2525024 6.4369316c-0.33068848 1.787281 -0.59936523 3.306923 -0.8060608 4.5589256c-0.1984253 1.2520065 -0.33895874 2.2545128 -0.42163086 3.0075302c-0.074401855 0.75302124 -0.11160278 1.3790207 -0.11160278 1.878006c0 1.23386 0.25213623 2.2953377 0.7564697 3.1844444c0.51257324 0.88910675 1.0871277 1.6285172 1.7237244 2.2182236c0.63656616 0.5806351 1.2566223 1.0115814 1.8601379 1.2928314c0.6117859 0.28124237 1.0210266 0.42186737 1.2276917 0.42186737c0.24801636 0 0.38442993 -0.2131958 0.40924072 -0.6396103c0.024810791 -0.41732788 0.037200928 -1.1249847 0.037200928 -2.122963c0.057891846 -1.2247849 0.31417847 -2.6582413 0.76885986 -4.300358c0.4547119 -1.6511955 0.9631653 -3.2570267 1.5253296 -4.8174934c0.66137695 -1.8417168 1.2566223 -3.5972443 1.7857361 -5.2665787c0.53738403 -1.6693382 1.1202087 -3.284237 1.7485352 -4.8447113c0.6365967 -1.5604668 1.3475647 -3.0664978 2.132965 -4.5181007c0.79367065 -1.4515991 1.773346 -2.9031982 2.9390259 -4.3547935c-1.0168762 -1.6149063 -2.2362976 -2.8805199 -3.6582642 -3.7968407c-1.4219971 -0.9163208 -2.5628967 -1.4878845 -3.4226685 -1.7146988zm-29.87436 -5.2665825c-0.6035156 0.67136383 -1.16156 1.4969616 -1.6741333 2.4767914c-0.504303 0.97075653 -1.0871582 2.3180199 -1.7485352 4.041794c-0.9176636 2.3951378 -1.8601379 5.0987396 -2.827423 8.1108055c-0.9590149 3.0120697 -1.8725586 6.0105324 -2.7406006 8.995377c-0.85980225 2.9757729 -1.6080017 5.788246 -2.2445984 8.437416c-0.63656616 2.649166 -1.0788879 4.7812004 -1.3269043 6.3961067c0.14883423 0.44454956 0.4753723 0.92085266 0.9796753 1.4289169c0.51257324 0.4989853 1.0830383 0.9707489 1.7113342 1.4153061c0.6365967 0.44454956 1.2731934 0.8210602 1.9097595 1.1295242c0.6365967 0.30846405 1.1822205 0.48992157 1.6369324 0.5443497c0.7605896 -3.846733 1.5583801 -7.1627274 2.393402 -9.947983c0.8432617 -2.7852516 1.8601379 -5.2529716 3.0506287 -7.4031525c1.198761 -2.1501808 2.637268 -4.100769 4.3155518 -5.851757c1.6782532 -1.760067 3.7078857 -3.5564194 6.088867 -5.389061c0.51257324 1.6149025 1.3020935 3.1073265 2.3685913 4.477276c1.0664673 1.3608742 2.2859192 2.431427 3.6582947 3.2116623c0.7605896 -0.834671 1.4550476 -1.7237778 2.0833435 -2.6673126c0.6365967 -0.95261 0.9838257 -1.5967598 1.041687 -1.9324417c-0.66137695 -1.2247849 -0.9920654 -3.0665016 -0.9920654 -5.5251465c0 -2.612877 0.4546814 -5.2575073 1.3641052 -7.9338913c-0.24801636 -0.44455338 -0.7027283 -0.79384613 -1.3641052 -1.0478745c-0.6614075 -0.25403023 -1.3475952 -0.3810444 -2.0585632 -0.3810444c-0.7605896 0 -1.2938538 0.1406231 -1.5997314 0.42186928c-1.8270874 3.012066 -3.7947083 5.747425 -5.9028625 8.20607c-2.1081848 2.4495735 -4.5346375 5.0080147 -7.2793884 7.6753273c1.0664978 -3.5654907 2.120575 -6.4913673 3.162262 -8.777634c1.041687 -2.2862701 2.2487183 -4.318508 3.6210938 -6.096714c-0.3059082 -0.39012146 -0.7399292 -0.79384613 -1.302124 -1.2111778c-0.55389404 -0.41733742 -1.1863403 -0.821064 -1.8973389 -1.2111797c-0.71099854 -0.39011765 -1.4509277 -0.72580147 -2.2197876 -1.0070457c-0.7605896 -0.2812481 -1.4963684 -0.476305 -2.207367 -0.58517647zm85.031525 0.74848175c-1.6782532 0 -3.368927 0.4173355 -5.071991 1.2520027c-1.6948242 0.8346672 -3.3441467 1.9778023 -4.947998 3.4294014c-1.5956116 1.4515991 -3.09198 3.152691 -4.4891663 5.1032753c-1.3971863 1.9505844 -2.6166077 4.028187 -3.6582947 6.2328033c-1.0416565 2.1955452 -1.8560181 4.4818115 -2.4429932 6.858803c-0.57870483 2.36792 -0.868042 4.695015 -0.868042 6.9812813c0 3.3386803 0.9755249 6.1919785 2.9266052 8.559898c1.9593811 2.36792 4.6917114 3.7786865 8.197052 4.232315c2.430603 -0.61693573 5.0058594 -2.0231705 7.7257996 -4.218712c2.7199707 -2.2046127 5.220825 -4.980793 7.502594 -8.328545c-0.35549927 -0.44454956 -0.7854004 -0.916317 -1.2897034 -1.4153061c-0.81018066 0.94353867 -1.7361145 1.9868736 -2.7778015 3.1300087c-1.041687 1.1431313 -2.1618958 2.2046165 -3.3606567 3.1844444c-1.1904907 0.97075653 -2.4471436 1.7918167 -3.7698975 2.4631805c-1.3227844 0.6622925 -2.6662292 0.9934387 -4.0303345 0.9934387c-0.710968 0 -1.2979431 -0.20867157 -1.7609253 -0.6260071c-0.4547119 -0.41732788 -0.8102112 -0.95713806 -1.0664978 -1.6194382c-0.24801636 -0.67136383 -0.42575073 -1.3971634 -0.53323364 -2.1773987c-0.09921265 -0.7802315 -0.14880371 -1.5332527 -0.14880371 -2.2590485c0 -0.39011383 0.012390137 -0.76662064 0.037200928 -1.1295242c0.024780273 -0.36289597 0.037200928 -0.7121849 0.037200928 -1.0478706c3.249054 -1.388092 6.0930176 -2.8351555 8.53186 -4.3411903c2.4388733 -1.506031 4.5098267 -3.193512 6.2128906 -5.0624466c1.703064 -1.8689384 3.0093079 -4.0417976 3.9187012 -6.518585c0.9176941 -2.4858627 1.4798584 -5.4571037 1.686554 -8.913723c-2.033783 -2.8396912 -4.220459 -4.4273777 -6.5601196 -4.7630577zm-140.72925 -11.866817c-0.4051056 0.27217293 -0.97554016 0.88456726 -1.7113342 1.8371792c-0.73579407 0.94353676 -1.5253296 2.1002789 -2.3685913 3.4702263c-0.83499146 1.3608742 -1.6989288 2.866909 -2.5917969 4.5181007c-0.88461304 1.6421223 -1.7072144 3.2978535 -2.467804 4.967188c-1.0168762 -0.054431915 -2.1371002 -0.122478485 -3.3606567 -0.20412827c-1.2153015 -0.081653595 -2.480194 -0.18144989 -3.7947083 -0.2993927l0 0c0 0.7802315 0.09921265 1.7146988 0.29762268 2.8033981c0.20669556 1.0886993 0.43403625 1.8008881 0.6820526 2.1365738l4.3527527 0c-0.96728516 2.5584412 -1.8601532 5.148636 -2.6786194 7.770588c-0.8101959 2.6219482 -1.5211792 5.130493 -2.132965 7.525631c-0.6035156 2.3951378 -1.0706177 4.6133614 -1.4013062 6.6546707c-0.33068848 2.0322418 -0.4960327 3.715187 -0.4960327 5.0488434c0 1.0070419 0.33068848 2.0277023 0.9920654 3.061966c0.6613922 1.0251923 1.5129242 1.9551239 2.5546112 2.7897873c1.0416718 0.8437424 2.1949615 1.5423279 3.4598694 2.095749c1.2731628 0.553421 2.5422058 0.86187744 3.8070984 0.92539215c0.4133606 -0.06350708 1.0251465 -0.3175354 1.8353424 -0.7620926c0.8101959 -0.44454956 1.6452026 -0.98889923 2.505005 -1.6330414c0.86805725 -0.63507843 1.6699982 -1.2882919 2.405777 -1.9596634c0.73579407 -0.67136383 1.2566376 -1.2565384 1.5625305 -1.7555237c-0.049606323 -0.3356781 -0.22735596 -0.7530136 -0.5332489 -1.2520065c-1.0664825 0.9435425 -2.285904 1.7237778 -3.6582794 2.3407059c-1.3723755 0.6169281 -2.8191528 1.0342636 -4.3403473 1.2519989c-1.6782684 -0.28124237 -2.517395 -1.6466522 -2.517395 -4.0962296c0 -1.7237663 0.19015503 -3.6743546 0.5704498 -5.851753c0.3802948 -2.1773987 0.91352844 -4.490883 1.5997162 -6.9404564c0.68618774 -2.4495735 1.5253296 -4.9989433 2.5174103 -7.6481094c0.9920654 -2.64917 2.1246948 -5.311947 3.3978577 -7.988327c3.554947 -0.10887146 6.57666 -0.66682816 9.0651245 -1.6738739c0 -0.44455338 -0.078552246 -0.8754997 -0.23562622 -1.2928314c-0.14880371 -0.4173355 -0.35136414 -0.76662827 -0.60765076 -1.0478745c-1.0664825 0.117946625 -2.1205597 0.20413208 -3.1622467 0.2585678c-1.041687 0.05443573 -2.0709686 0.081653595 -3.0878448 0.081653595c1.2731781 -2.340704 2.4553986 -4.4183064 3.5466766 -6.2328033c1.0912933 -1.814497 2.397522 -3.7786903 3.9187164 -5.892582c-0.24801636 -0.33568382 -0.7027283 -0.67136765 -1.3641052 -1.0070477c-0.6613922 -0.33568192 -1.4013214 -0.6532192 -2.2197723 -0.95261c-0.8101959 -0.30846596 -1.6080017 -0.5579586 -2.393402 -0.74848175c-0.78538513 -0.1995945 -1.434372 -0.2993908 -1.9469452 -0.2993908zm103.77652 41.384167c0 1.4515953 -0.24389648 2.9304085 -0.73165894 4.436447c-0.4795227 1.5060349 -1.1243591 2.9258804 -1.9345703 4.2595367c-0.81018066 1.3336563 -1.7609253 2.5312195 -2.8522034 3.5927048c-1.0913086 1.0614777 -2.2487183 1.8689346 -3.47229 2.4223557c-1.0168762 -0.7802353 -1.5253296 -1.7827454 -1.5253296 -3.0075302c0 -0.9435425 0.35549927 -2.054924 1.0664978 -3.3341446c0.71099854 -1.2882919 1.5997314 -2.5312195 2.6661987 -3.7287903c1.0664978 -1.1975708 2.2073975 -2.227295 3.4226685 -3.0891838c1.2235718 -0.87096024 2.343811 -1.388092 3.3606873 -1.5513954zm7.3909607 -33.191708c-1.3227539 0.33568192 -2.5959473 0.94807625 -3.8194885 1.8371792c-1.2153015 0.88910294 -2.2817688 1.9641933 -3.199463 3.2252693c-0.9093933 1.2520046 -1.6451721 2.6174145 -2.207367 4.0962315c-0.55392456 1.4697418 -0.8308716 2.9576302 -0.8308716 4.463665c0 1.1703491 0.12814331 2.3588448 0.38442993 3.565487c0.25628662 1.1975708 0.5208435 2.4223557 0.79367065 3.6743584c0.2810974 1.2520065 0.54977417 2.5493736 0.8060608 3.8921013c0.25628662 1.3336563 0.38442993 2.6990662 0.38442993 4.0962296c-2.240448 0.16330338 -4.3155212 0.70765305 -6.225281 1.633049c-1.9014893 0.9163208 -3.5508118 2.1138916 -4.947998 3.5927048c-1.3971863 1.4697418 -2.5008545 3.166298 -3.3110657 5.0896683c-0.81018066 1.9233704 -1.2153015 3.9465332 -1.2153015 6.069496c0.1984253 0.7802353 0.54977417 1.5468674 1.0541077 2.2998734c0.51257324 0.75302124 1.1119385 1.4334564 1.7981262 2.0413132c0.68618774 0.6169281 1.4095764 1.1204529 2.170166 1.5105667c0.76885986 0.39012146 1.5087891 0.61239624 2.2197876 0.666832c4.108856 -0.44454956 7.316559 -2.0912094 9.623169 -4.939972c2.3148499 -2.8396912 3.4722595 -6.600235 3.4722595 -11.281643c0 -0.67136765 -0.012390137 -1.2293243 -0.037200928 -1.6738739c-0.024810791 -0.44454956 -0.037200928 -0.8890991 -0.037200928 -1.3336563c0 -0.33568192 0.037200928 -0.5987854 0.11160278 -0.78930664c0.08267212 -0.19959259 0.3017578 -0.3810463 0.6572571 -0.5443497c0.35549927 -0.17237473 0.8763428 -0.35382843 1.5625305 -0.5443497c0.6861572 -0.19959259 1.6121216 -0.44001007 2.7778015 -0.7212639c0.1984253 -0.2177391 0.29763794 -0.5761032 0.29763794 -1.0750885c0 -0.33568192 -0.024810791 -0.5624924 -0.074401855 -0.680439c-0.8102112 0 -1.6369324 0.01815033 -2.480194 0.05443573c-0.835022 0.027217865 -1.7857666 0.068042755 -2.852234 0.122478485c-0.049621582 -0.117938995 -0.074401855 -0.4536209 -0.074401855 -1.0070457c0 -5.4072075 0.53323364 -9.503437 1.5997314 -12.288689c1.0664673 -2.7852554 2.6166077 -4.177883 4.65036 -4.177883c0.55389404 0 0.9962158 0.2631035 1.3269043 0.78930664c0.33068848 0.526207 0.4960327 1.1794243 0.4960327 1.9596596c0 0.33568192 -0.06201172 0.72579956 -0.18600464 1.1703491c-0.12402344 0.44455338 -0.26455688 0.8936424 -0.42163086 1.3472672c-0.14883423 0.44455338 -0.28936768 0.84827805 -0.42166138 1.2111778c-0.12399292 0.36289978 -0.18600464 0.62599945 -0.18600464 0.78930664c0.09921265 0.7802353 0.42990112 1.197567 0.99209595 1.2520027c0.40509033 0 0.83499146 -0.3039322 1.2897034 -0.9117851c0.46295166 -0.6169281 0.89697266 -1.3835526 1.3020935 -2.2998772c0.40509033 -0.92539215 0.74819946 -1.9596558 1.0292664 -3.1027908c0.2810974 -1.1431351 0.44644165 -2.2409058 0.49606323 -3.293316c-0.15710449 -0.67136383 -0.5911255 -1.5196381 -1.302124 -2.5448341c-0.710968 -1.0342636 -1.5252991 -2.0549183 -2.4429932 -3.061964c-0.9093933 -1.0070457 -1.8353271 -1.9142971 -2.7778015 -2.7217464c-0.9342041 -0.80745125 -1.6824036 -1.2928314 -2.2445984 -1.4561348zm-89.75487 -2.7625751c-0.4547119 0.44455338 -0.96315 1.1023083 -1.5253296 1.9732685c-0.5539093 0.8618851 -1.0995483 1.7827435 -1.6369171 2.7625732c-0.52911377 0.9707546 -1.000351 1.9324398 -1.4137115 2.8850517c-0.4051056 0.94353867 -0.7068634 1.7464523 -0.90527344 2.4087448c-0.25628662 0.95261383 -0.5993805 2.1002808 -1.0292816 3.4430122c-0.42990112 1.3336563 -0.98794556 3.0302124 -1.6741333 5.0896683c-0.68618774 2.059452 -1.5377197 4.4999504 -2.554596 7.321499c-1.0168915 2.8124695 -2.2115173 6.142071 -3.5838928 9.9888115c-1.1160889 3.0665054 -2.132965 6.092182 -3.0506287 9.07703c-0.90940857 2.975769 -1.6824036 5.742882 -2.318985 8.301331c-0.6365967 2.5675125 -1.1326294 4.867386 -1.4881287 6.8996277c-0.355484 2.0413055 -0.53323364 3.6471405 -0.53323364 4.8174896c0 1.2792206 0.037200928 2.4178162 0.11160278 3.4157944c0.08267212 1.0070496 0.22322083 1.8734665 0.42163086 2.599266c0.09921265 1.4515991 0.50431824 2.290802 1.2153015 2.5176163c0.25628662 0.10887146 0.47123718 0.27217865 0.6448517 0.48991394c0.18188477 0.22681427 0.4753723 0.5897064 0.88046265 1.0886993c0.4051056 0.7802353 0.88874817 1.2293243 1.4509277 1.3472672c0.9176636 -4.0735474 1.8684082 -8.160713 2.8522186 -12.261475c0.9920807 -4.09169 1.9841614 -7.952034 2.9762268 -11.581032c0.9920807 -3.6199265 1.9552307 -6.8905563 2.8894348 -9.811897c0.94247437 -2.93042 1.7692108 -5.284729 2.480194 -7.062935c0.51257324 -1.3427277 0.9838104 -2.472252 1.4137115 -3.3885765c0.42990112 -0.92539215 0.98794556 -1.9142914 1.6741333 -2.9667053c0.68618774 -1.0614815 1.5625153 -2.3452415 2.629013 -3.8512726c1.0664825 -1.506031 2.51326 -3.4838333 4.340332 -5.933407c1.5294647 -2.122963 3.0671844 -3.8376656 4.6131744 -5.144104c1.5459747 -1.3064384 3.286255 -2.5176163 5.22081 -3.6335335l0 0c-0.6117859 3.5654907 -1.5170593 7.0765457 -2.7158203 10.533165c-1.1904907 3.4566193 -2.5876617 6.677349 -4.1915283 9.662201c-1.5955963 2.9757767 -3.331726 5.6068 -5.2084045 7.8930664c-1.8766937 2.2862663 -3.8071136 4.0690117 -5.79126 5.3482323c0.25628662 0.61693573 0.7275238 1.1340637 1.4137115 1.5513992c0.68618774 0.41732788 1.4839783 0.62599945 2.3933868 0.62599945c0.9672699 0 2.0585632 -0.24949646 3.2738495 -0.74848175c1.2235718 -0.50805664 2.467804 -1.1930313 3.7326965 -2.0549164c1.2731628 -0.8618927 2.4925995 -1.8507919 3.6582947 -2.9667053c1.1739502 -1.1159172 2.1908417 -2.2862663 3.050644 -3.511055c2.290039 -3.175373 4.0427094 -6.727253 5.258011 -10.65564c1.2153015 -3.9283867 1.822937 -7.9021378 1.822937 -11.921253c0 -1.841713 -0.624176 -3.3477478 -1.8725586 -4.5181007c-1.2400818 -1.1703491 -2.8232727 -1.7555256 -4.7495575 -1.7555256c-1.2153015 0 -2.6496735 0.5715656 -4.3031464 1.7147007c-1.6534576 1.1431351 -3.4185333 2.776184 -5.295212 4.899143c-1.6782684 1.9505844 -2.9266357 3.4838371 -3.745102 4.5997543c-0.8101959 1.1159172 -1.4674377 2.1456413 -1.971756 3.0891838c0.35549927 -1.4515991 0.88874817 -3.125473 1.5997314 -5.0216255c0.7109833 -1.8961487 1.4963837 -3.7469368 2.356186 -5.5523643c0.8680725 -1.8144951 1.7568054 -3.488369 2.666214 -5.0216217c0.9176636 -1.5332527 1.7319946 -2.662777 2.4429932 -3.3885765c-0.35549927 -0.6622925 -1.3227692 -1.3563385 -2.901825 -2.0821362c-1.5708008 -0.72579765 -3.244934 -1.2293205 -5.0224 -1.5105705z" fill-rule="evenodd"/><path fill="#111111" d="m379.19858 29.272476c-0.6035156 0.67136383 -1.16156 1.4969616 -1.6741333 2.4767914c-0.504303 0.97075653 -1.0871582 2.3180199 -1.7485352 4.041794c-0.9176636 2.3951378 -1.8601379 5.0987396 -2.827423 8.1108055c-0.9590149 3.0120697 -1.8725586 6.0105324 -2.740631 8.995377c-0.8597717 2.9757729 -1.6079712 5.788246 -2.2445679 8.437416c-0.63656616 2.649166 -1.0788879 4.7812004 -1.3269043 6.3961067c0.14880371 0.44454956 0.4753723 0.92085266 0.9796753 1.4289169c0.51257324 0.4989853 1.0830078 0.9707489 1.7113342 1.4153061c0.6365967 0.44454956 1.2731628 0.8210602 1.9097595 1.1295242c0.63656616 0.30846405 1.1822205 0.48992157 1.6369324 0.5443497c0.7605896 -3.846733 1.5583801 -7.1627274 2.3933716 -9.947983c0.8432617 -2.7852516 1.8601685 -5.2529716 3.0506592 -7.4031525c1.198761 -2.1501808 2.637268 -4.100769 4.3155212 -5.851757c1.6782837 -1.760067 3.7079163 -3.5564194 6.0888977 -5.389061c0.51257324 1.6149025 1.3020935 3.1073265 2.3685913 4.477276c1.0664673 1.3608742 2.2858887 2.431427 3.6582642 3.2116623c0.7605896 -0.834671 1.4550476 -1.7237778 2.083374 -2.6673126c0.6365967 -0.95261 0.9838257 -1.5967598 1.041687 -1.9324417c-0.6614075 -1.2247849 -0.99209595 -3.0665016 -0.99209595 -5.5251465c0 -2.612877 0.4547119 -5.2575073 1.3641357 -7.9338913c-0.24804688 -0.44455338 -0.7027283 -0.79384613 -1.3641357 -1.0478745c-0.66137695 -0.25403023 -1.3475647 -0.3810444 -2.0585632 -0.3810444c-0.7605591 0 -1.2938232 0.1406231 -1.5997009 0.42186928c-1.8270874 3.012066 -3.7947083 5.747425 -5.9028625 8.20607c-2.1081848 2.4495735 -4.5346375 5.0080147 -7.2793884 7.6753273c1.0664978 -3.5654907 2.120575 -6.4913673 3.162262 -8.777634c1.0416565 -2.2862701 2.2486877 -4.318508 3.6210632 -6.096714c-0.3058777 -0.39012146 -0.7399292 -0.79384613 -1.3020935 -1.2111778c-0.55392456 -0.41733742 -1.1863708 -0.821064 -1.8973389 -1.2111797c-0.71099854 -0.39011765 -1.4509277 -0.72580147 -2.2197876 -1.0070457c-0.7605896 -0.2812481 -1.4963684 -0.476305 -2.207367 -0.58517647z" fill-rule="evenodd"/></g></svg>